mtllib starfish.mtl
o scene_mesh
v -6.12604 -0.780975 -1.796076
v -6.468157 -0.780975 -1.843675
v -6.544912 -0.780975 -2.180452
v -6.695902 -0.780975 -1.869788
v -7.039914 -0.780975 -1.900859
v -6.791113 -0.780975 -1.661259
v -6.92697 -0.780975 -1.343686
v -6.622213 -0.780975 -1.506269
v -6.362164 -0.780975 -1.278926
v -6.422615 -0.780975 -1.619008
v -6.12604 -0.752895 -1.796076
v -6.468157 -0.752895 -1.843675
v -6.544912 -0.752895 -2.180452
v -6.695902 -0.752895 -1.869788
v -7.039914 -0.752895 -1.900859
v -6.791113 -0.752895 -1.661259
v -6.92697 -0.752895 -1.343686
v -6.622213 -0.752895 -1.506269
v -6.362164 -0.752895 -1.278926
v -6.422615 -0.752895 -1.619008
v -6.6 -0.745095 -1.7
v -6.6 -0.782535 -1.7
v -8.776199 -0.916178 0.956414
v -8.957299 -0.916178 0.774281
v -8.851182 -0.916178 0.540382
v -9.080364 -0.916178 0.656336
v -9.270023 -0.916178 0.483133
v -9.230565 -0.916178 0.73693
v -9.453898 -0.916178 0.863784
v -9.20033 -0.916178 0.904685
v -9.148698 -0.916178 1.156287
v -9.031442 -0.916178 0.927769
v -8.776199 -0.895298 0.956414
v -8.957299 -0.895298 0.774281
v -8.851182 -0.895298 0.540382
v -9.080364 -0.895298 0.656336
v -9.270023 -0.895298 0.483133
v -9.230565 -0.895298 0.73693
v -9.453898 -0.895298 0.863784
v -9.20033 -0.895298 0.904685
v -9.148698 -0.895298 1.156287
v -9.031442 -0.895298 0.927769
v -9.1 -0.889498 0.8
v -9.1 -0.917338 0.8
usemtl starfish_red
f 21 11 12
f 22 2 1
f 1 2 12
f 1 12 11
f 21 12 13
f 22 3 2
f 2 3 13
f 2 13 12
f 21 13 14
f 22 4 3
f 3 4 14
f 3 14 13
f 21 14 15
f 22 5 4
f 4 5 15
f 4 15 14
f 21 15 16
f 22 6 5
f 5 6 16
f 5 16 15
f 21 16 17
f 22 7 6
f 6 7 17
f 6 17 16
f 21 17 18
f 22 8 7
f 7 8 18
f 7 18 17
f 21 18 19
f 22 9 8
f 8 9 19
f 8 19 18
f 21 19 20
f 22 10 9
f 9 10 20
f 9 20 19
f 21 20 11
f 22 1 10
f 10 1 11
f 10 11 20
usemtl starfish_sand
f 43 33 34
f 44 24 23
f 23 24 34
f 23 34 33
f 43 34 35
f 44 25 24
f 24 25 35
f 24 35 34
f 43 35 36
f 44 26 25
f 25 26 36
f 25 36 35
f 43 36 37
f 44 27 26
f 26 27 37
f 26 37 36
f 43 37 38
f 44 28 27
f 27 28 38
f 27 38 37
f 43 38 39
f 44 29 28
f 28 29 39
f 28 39 38
f 43 39 40
f 44 30 29
f 29 30 40
f 29 40 39
f 43 40 41
f 44 31 30
f 30 31 41
f 30 41 40
f 43 41 42
f 44 32 31
f 31 32 42
f 31 42 41
f 43 42 33
f 44 23 32
f 32 23 33
f 32 33 42
